<?xml version="1.0" standalone="no"?>
<!DOCTYPE svg PUBLIC "-//W3C//DTD SVG 20010904//EN"
 "http://www.w3.org/TR/2001/REC-SVG-20010904/DTD/svg10.dtd">
<svg version="1.0" xmlns="http://www.w3.org/2000/svg"
 width="830.000000pt" height="830.000000pt" viewBox="0 0 830.000000 830.000000"
 preserveAspectRatio="xMidYMid meet">
<metadata>
Created by potrace 1.11, written by Peter Selinger 2001-2013
</metadata>
<g transform="translate(0.000000,830.000000) scale(0.100000,-0.100000)"
fill="#000000" stroke="none">
<path d="M3948 8215 c-2 -2 -48 -6 -103 -10 -55 -4 -102 -8 -105 -10 -3 -1
-27 -6 -55 -9 -73 -10 -117 -17 -145 -22 -14 -3 -36 -7 -50 -9 -23 -5 -50 -11
-135 -31 -16 -4 -39 -9 -50 -11 -11 -2 -33 -8 -50 -13 -16 -6 -34 -11 -40 -11
-5 -1 -40 -12 -77 -25 -38 -12 -68 -21 -68 -19 0 4 -40 -11 -95 -34 -11 -5
-58 -23 -105 -41 -47 -18 -161 -69 -255 -115 -581 -285 -1094 -740 -1458
-1295 -246 -376 -428 -791 -531 -1212 -20 -79 -38 -154 -40 -168 -3 -14 -8
-36 -11 -50 -3 -14 -8 -39 -10 -57 -2 -17 -8 -57 -14 -90 -9 -51 -15 -91 -26
-183 -13 -103 -20 -248 -20 -445 0 -293 8 -403 50 -670 3 -23 33 -179 39 -210
13 -61 78 -303 86 -320 5 -11 14 -40 20 -64 6 -24 24 -77 40 -119 l29 -75
-157 -156 -157 -156 -3 -622 -2 -622 76 -88 c42 -48 100 -115 129 -148 29 -33
65 -76 81 -95 16 -19 36 -42 44 -50 19 -21 58 -66 135 -155 33 -38 64 -75 70
-81 5 -6 33 -37 60 -69 28 -32 65 -75 82 -94 l33 -36 0 -121 c0 -67 5 -136 11
-155 16 -46 56 -88 106 -111 39 -17 70 -18 419 -18 409 1 419 2 470 57 61 65
57 -53 58 1715 1 889 -2 1634 -7 1655 -9 46 -56 106 -100 130 -28 15 -70 17
-329 18 -164 1 -299 3 -302 6 -3 2 -7 16 -9 29 -20 108 -28 151 -32 191 -3 26
-8 57 -10 69 -23 119 -22 568 1 725 2 17 6 47 9 69 2 21 9 64 14 95 6 31 13
71 16 90 3 19 8 37 10 41 2 3 6 17 9 31 59 316 224 706 431 1020 45 69 89 134
98 145 339 423 667 684 1107 882 102 46 300 114 362 126 15 2 31 7 36 10 10 6
203 46 252 52 19 2 49 6 65 9 159 23 488 24 633 1 15 -3 50 -7 77 -11 28 -3
57 -8 65 -10 8 -2 31 -7 50 -10 51 -9 121 -24 155 -35 160 -50 269 -86 314
-106 29 -13 60 -24 67 -24 8 0 14 -4 14 -10 0 -5 6 -10 14 -10 41 0 400 -211
505 -296 9 -7 54 -43 101 -81 104 -83 295 -273 372 -369 31 -39 63 -77 70 -85
30 -32 175 -250 226 -339 86 -149 233 -481 246 -554 3 -14 8 -31 11 -37 7 -10
16 -41 50 -164 41 -153 80 -389 92 -565 12 -167 6 -506 -11 -595 -4 -23 -18
-121 -22 -150 -4 -38 -24 -128 -29 -134 -3 -3 -139 -5 -303 -6 -163 0 -308 -4
-322 -9 -44 -15 -92 -57 -111 -100 -18 -39 -19 -101 -19 -1677 0 -1425 2
-1641 15 -1670 19 -44 32 -59 75 -89 l35 -25 391 -3 c426 -2 431 -2 488 55 47
46 57 83 58 217 l2 123 35 40 c20 22 59 66 86 98 28 32 64 74 81 94 17 20 51
59 75 86 24 28 70 80 101 115 62 72 72 84 138 161 25 29 53 61 62 71 9 9 44
50 78 89 l61 73 -3 619 -3 620 -152 153 -152 152 51 149 c43 126 95 304 114
392 2 12 11 51 19 85 7 33 16 79 20 101 3 23 8 52 10 65 12 57 24 153 42 315
10 96 10 590 0 700 -7 79 -29 250 -42 325 -19 116 -44 236 -66 320 -12 41 -22
82 -24 90 -37 153 -124 392 -223 610 -55 122 -175 348 -213 402 -11 14 -19 31
-19 37 0 6 -4 11 -10 11 -5 0 -10 4 -10 10 0 33 -299 428 -409 541 -14 15 -54
55 -87 90 -53 55 -159 154 -244 229 -14 12 -63 52 -110 88 -47 37 -87 69 -90
72 -6 7 -202 140 -227 155 -10 6 -62 36 -116 68 -101 61 -326 171 -452 222
-111 46 -364 129 -425 141 -14 3 -52 12 -85 21 -33 8 -71 17 -85 19 -14 3 -59
11 -100 19 -78 14 -123 21 -200 30 -25 3 -63 8 -85 11 -42 6 -541 14 -547 9z"/>
</g>
</svg>
